<svg xmlns="http://www.w3.org/2000/svg" version="1.1" xmlns:xlink="http://www.w3.org/1999/xlink" viewBox="0 0 200 200"><rect width="200" height="200" fill="url('#gradient')"></rect><defs><linearGradient id="gradient" gradientTransform="rotate(282 0.5 0.5)"><stop offset="0%" stop-color="#e8f5e9"></stop><stop offset="100%" stop-color="#a5d6a7"></stop></linearGradient></defs><g><g fill="#0a5f0f" transform="matrix(5.448333800056007,0,0,5.448333800056007,-0.8494034355276341,138.73702891231486)" stroke="#8bc34a" stroke-width="0.55"><path d="M4.50-14.22L4.50-2.64L10.47-2.64L10.47 0L1.07 0L1.07-14.22L4.50-14.22ZM17.53-4.82L15.34-4.82L15.34 0L11.91 0L11.91-14.22L17.59-14.22Q19.22-14.22 20.47-13.62Q21.73-13.02 22.42-11.91Q23.11-10.80 23.11-9.39L23.11-9.39Q23.11-7.31 21.62-6.07Q20.13-4.82 17.53-4.82L17.53-4.82ZM15.34-11.57L15.34-7.47L17.59-7.47Q18.58-7.47 19.11-7.97Q19.63-8.47 19.63-9.38L19.63-9.38Q19.63-10.37 19.09-10.97Q18.55-11.56 17.63-11.57L17.63-11.57L15.34-11.57ZM30.70 0L24.93 0L24.93-14.22L30.04-14.22Q32.78-14.22 34.21-13.21Q35.64-12.21 35.64-10.29L35.64-10.29Q35.64-9.19 35.14-8.41Q34.63-7.63 33.64-7.26L33.64-7.26Q34.76-6.96 35.35-6.16Q35.95-5.36 35.95-4.21L35.95-4.21Q35.95-2.12 34.62-1.07Q33.30-0.02 30.70 0L30.70 0ZM30.76-6.04L28.36-6.04L28.36-2.64L30.61-2.64Q31.53-2.64 32.03-3.06Q32.53-3.49 32.53-4.26L32.53-4.26Q32.53-6.04 30.76-6.04L30.76-6.04ZM28.36-11.57L28.36-8.29L30.15-8.29Q31.27-8.30 31.75-8.70Q32.23-9.10 32.23-9.88L32.23-9.88Q32.23-10.78 31.71-11.18Q31.19-11.57 30.04-11.57L30.04-11.57L28.36-11.57Z"></path></g></g></svg>